<svg width="256" height="256" viewBox="0 0 256 256" fill="none" xmlns="http://www.w3.org/2000/svg">
<mask id="mask0_104_3" style="mask-type:alpha" maskUnits="userSpaceOnUse" x="0" y="0" width="256" height="256">
<rect width="256" height="256" fill="#D9D9D9"/>
</mask>
<g mask="url(#mask0_104_3)">
<g filter="url(#filter0_d_104_3)">
<path d="M17.6492 46.3371C17.2356 45.6879 17.6799 44.8344 18.449 44.8008L231.288 35.508C232.058 35.4744 232.575 36.286 232.219 36.9688L133.847 225.94C133.492 226.622 132.53 226.664 132.117 226.015L17.6492 46.3371Z" fill="#9E0F9E"/>
</g>
<g filter="url(#filter1_f_104_3)">
<path d="M49.5007 61.873C46.6571 56.4105 50.7932 49.918 56.9458 50.1867L202.3 56.5329C208.452 56.8016 212.007 63.6298 208.698 68.8237L130.525 191.531C127.216 196.725 119.525 196.389 116.682 190.926L49.5007 61.873Z" fill="#393939"/>
</g>
<path d="M102.81 136.603C99.8231 136.603 97.5404 135.771 95.9618 134.107C94.3831 132.443 93.5938 130.203 93.5938 127.387V116.251C93.5938 114.502 93.2524 113.158 92.5698 112.219C91.9298 111.238 91.0338 110.555 89.8818 110.171C88.7298 109.744 87.4498 109.51 86.0418 109.467V106.779C87.4498 106.736 88.7298 106.523 89.8818 106.139C91.0338 105.712 91.9298 105.03 92.5698 104.091C93.2524 103.11 93.5938 101.766 93.5938 100.059V88.9229C93.5938 86.0216 94.3831 83.7816 95.9618 82.2029C97.5404 80.5816 99.8231 79.7709 102.81 79.7709H107.034V82.5229H105.114C103.236 82.5229 101.892 83.0989 101.082 84.2509C100.271 85.3603 99.8658 87.0243 99.8658 89.2429V100.187C99.8658 101.552 99.5884 102.79 99.0338 103.899C98.5218 105.008 97.7324 105.926 96.6658 106.651C95.6418 107.334 94.3404 107.803 92.7618 108.059V108.123C94.3831 108.379 95.7058 108.87 96.7298 109.595C97.7964 110.32 98.5858 111.238 99.0978 112.347C99.6098 113.414 99.8658 114.651 99.8658 116.059V127.131C99.8658 129.307 100.271 130.971 101.082 132.123C101.892 133.275 103.236 133.851 105.114 133.851H107.034V136.603H102.81ZM126.842 136.155L141.562 79.7709H145.274L130.618 136.155H126.842ZM148.479 136.603V133.851H150.399C152.277 133.851 153.621 133.275 154.431 132.123C155.242 130.971 155.647 129.307 155.647 127.131V116.059C155.647 114.651 155.903 113.414 156.415 112.347C156.927 111.238 157.695 110.32 158.719 109.595C159.786 108.87 161.13 108.379 162.751 108.123V108.059C161.173 107.803 159.85 107.334 158.783 106.651C157.759 105.926 156.97 105.008 156.415 103.899C155.903 102.79 155.647 101.552 155.647 100.187V89.2429C155.647 87.0243 155.242 85.3603 154.431 84.2509C153.621 83.0989 152.277 82.5229 150.399 82.5229H148.479V79.7709H152.703C155.733 79.7709 158.015 80.5816 159.551 82.2029C161.13 83.7816 161.919 86.0216 161.919 88.9229V100.059C161.919 101.766 162.261 103.11 162.943 104.091C163.626 105.03 164.522 105.712 165.631 106.139C166.783 106.523 168.063 106.736 169.471 106.779V109.467C168.063 109.51 166.783 109.744 165.631 110.171C164.522 110.555 163.626 111.238 162.943 112.219C162.261 113.158 161.919 114.502 161.919 116.251V127.387C161.919 130.203 161.13 132.443 159.551 134.107C158.015 135.771 155.733 136.603 152.703 136.603H148.479Z" fill="#E7C160"/>
<path d="M95.9618 134.107L96.6872 133.419L95.9618 134.107ZM92.5698 112.219L91.7322 112.765L91.7461 112.787L91.761 112.807L92.5698 112.219ZM89.8818 110.171L89.5345 111.109L89.5499 111.114L89.5655 111.12L89.8818 110.171ZM86.0418 109.467H85.0418V110.437L86.0115 110.466L86.0418 109.467ZM86.0418 106.779L86.0115 105.779L85.0418 105.809V106.779H86.0418ZM89.8818 106.139L90.198 107.088L90.2136 107.082L90.2291 107.077L89.8818 106.139ZM92.5698 104.091L91.7488 103.52L91.7435 103.528L92.5698 104.091ZM95.9618 82.2029L96.6689 82.9101L96.6782 82.9006L95.9618 82.2029ZM107.034 79.7709H108.034V78.7709H107.034V79.7709ZM107.034 82.5229V83.5229H108.034V82.5229H107.034ZM101.082 84.2509L101.889 84.841L101.894 84.8337L101.9 84.8264L101.082 84.2509ZM99.0338 103.899L98.1393 103.452L98.1324 103.466L98.1258 103.48L99.0338 103.899ZM96.6658 106.651L97.2205 107.483L97.2281 107.478L96.6658 106.651ZM92.7618 108.059L92.6017 107.072L91.7618 107.208V108.059H92.7618ZM92.7618 108.123H91.7618V108.977L92.6058 109.111L92.7618 108.123ZM96.7298 109.595L96.1517 110.411L96.1596 110.417L96.1675 110.422L96.7298 109.595ZM99.0978 112.347L98.1898 112.766L98.193 112.773L98.1962 112.78L99.0978 112.347ZM101.082 132.123L101.9 131.547L101.082 132.123ZM107.034 133.851H108.034V132.851H107.034V133.851ZM107.034 136.603V137.603H108.034V136.603H107.034ZM102.81 135.603C100.01 135.603 98.0245 134.828 96.6872 133.419L95.2363 134.795C97.0563 136.714 99.6358 137.603 102.81 137.603V135.603ZM96.6872 133.419C95.323 131.981 94.5938 130.008 94.5938 127.387H92.5938C92.5938 130.398 93.4432 132.905 95.2363 134.795L96.6872 133.419ZM94.5938 127.387V116.251H92.5938V127.387H94.5938ZM94.5938 116.251C94.5938 114.392 94.2341 112.807 93.3785 111.631L91.761 112.807C92.2707 113.508 92.5938 114.612 92.5938 116.251H94.5938ZM93.4074 111.673C92.6392 110.495 91.5558 109.675 90.198 109.222L89.5655 111.12C90.5117 111.435 91.2203 111.98 91.7322 112.765L93.4074 111.673ZM90.2291 109.233C88.9618 108.764 87.5728 108.513 86.0721 108.467L86.0115 110.466C87.3268 110.506 88.4978 110.725 89.5345 111.109L90.2291 109.233ZM87.0418 109.467V106.779H85.0418V109.467H87.0418ZM86.0721 107.778C87.5621 107.733 88.9403 107.507 90.198 107.088L89.5655 105.19C88.5193 105.539 87.3374 105.739 86.0115 105.779L86.0721 107.778ZM90.2291 107.077C91.559 106.584 92.6294 105.779 93.396 104.654L91.7435 103.528C91.2301 104.281 90.5085 104.84 89.5345 105.201L90.2291 107.077ZM93.3907 104.662C94.2301 103.455 94.5938 101.886 94.5938 100.059H92.5938C92.5938 101.645 92.2748 102.764 91.7489 103.52L93.3907 104.662ZM94.5938 100.059V88.9229H92.5938V100.059H94.5938ZM94.5938 88.9229C94.5938 86.204 95.3291 84.2498 96.6689 82.9101L95.2547 81.4958C93.4371 83.3134 92.5938 85.8392 92.5938 88.9229H94.5938ZM96.6782 82.9006C98.0141 81.5286 100.003 80.7709 102.81 80.7709V78.7709C99.6431 78.7709 97.0668 79.6346 95.2453 81.5053L96.6782 82.9006ZM102.81 80.7709H107.034V78.7709H102.81V80.7709ZM106.034 79.7709V82.5229H108.034V79.7709H106.034ZM107.034 81.5229H105.114V83.5229H107.034V81.5229ZM105.114 81.5229C103.03 81.5229 101.321 82.1731 100.264 83.6755L101.9 84.8264C102.464 84.0248 103.443 83.5229 105.114 83.5229V81.5229ZM100.274 83.6609C99.2827 85.018 98.8658 86.9321 98.8658 89.2429H100.866C100.866 87.1165 101.26 85.7025 101.889 84.841L100.274 83.6609ZM98.8658 89.2429V100.187H100.866V89.2429H98.8658ZM98.8658 100.187C98.8658 101.413 98.6178 102.495 98.1393 103.452L99.9282 104.346C100.559 103.084 100.866 101.692 100.866 100.187H98.8658ZM98.1258 103.48C97.6942 104.415 97.0288 105.195 96.1035 105.824L97.2281 107.478C98.4361 106.656 99.3494 105.601 99.9417 104.318L98.1258 103.48ZM96.1111 105.819C95.236 106.402 94.0798 106.832 92.6017 107.072L92.9218 109.046C94.6011 108.774 96.0475 108.265 97.2205 107.483L96.1111 105.819ZM91.7618 108.059V108.123H93.7618V108.059H91.7618ZM92.6058 109.111C94.1201 109.35 95.2859 109.798 96.1517 110.411L97.3078 108.779C96.1256 107.942 94.6461 107.408 92.9177 107.135L92.6058 109.111ZM96.1675 110.422C97.0928 111.051 97.7582 111.831 98.1898 112.766L100.006 111.928C99.4134 110.644 98.5001 109.589 97.2921 108.768L96.1675 110.422ZM98.1962 112.78C98.6322 113.688 98.8658 114.773 98.8658 116.059H100.866C100.866 114.529 100.587 113.139 99.9993 111.914L98.1962 112.78ZM98.8658 116.059V127.131H100.866V116.059H98.8658ZM98.8658 127.131C98.8658 129.408 99.2861 131.309 100.264 132.698L101.9 131.547C101.256 130.633 100.866 129.206 100.866 127.131H98.8658ZM100.264 132.698C101.321 134.201 103.03 134.851 105.114 134.851V132.851C103.443 132.851 102.464 132.349 101.9 131.547L100.264 132.698ZM105.114 134.851H107.034V132.851H105.114V134.851ZM106.034 133.851V136.603H108.034V133.851H106.034ZM107.034 135.603H102.81V137.603H107.034V135.603ZM126.842 136.155L125.874 135.902L125.547 137.155H126.842V136.155ZM141.562 79.7709V78.7709H140.789L140.594 79.5183L141.562 79.7709ZM145.274 79.7709L146.242 80.0225L146.567 78.7709H145.274V79.7709ZM130.618 136.155V137.155H131.391L131.586 136.407L130.618 136.155ZM127.809 136.408L142.529 80.0235L140.594 79.5183L125.874 135.902L127.809 136.408ZM141.562 80.7709H145.274V78.7709H141.562V80.7709ZM144.306 79.5194L129.65 135.903L131.586 136.407L146.242 80.0225L144.306 79.5194ZM130.618 135.155H126.842V137.155H130.618V135.155ZM148.479 136.603H147.479V137.603H148.479V136.603ZM148.479 133.851V132.851H147.479V133.851H148.479ZM154.431 132.123L155.249 132.698L154.431 132.123ZM156.415 112.347L157.317 112.78L157.32 112.773L157.323 112.766L156.415 112.347ZM158.719 109.595L158.157 108.768L158.149 108.773L158.141 108.779L158.719 109.595ZM162.751 108.123L162.907 109.111L163.751 108.977V108.123H162.751ZM162.751 108.059H163.751V107.208L162.911 107.072L162.751 108.059ZM158.783 106.651L158.205 107.467L158.224 107.481L158.244 107.493L158.783 106.651ZM156.415 103.899L155.507 104.318L155.514 104.332L155.521 104.346L156.415 103.899ZM154.431 84.2509L153.613 84.8264L153.619 84.8337L153.624 84.841L154.431 84.2509ZM148.479 82.5229H147.479V83.5229H148.479V82.5229ZM148.479 79.7709V78.7709H147.479V79.7709H148.479ZM159.551 82.2029L158.825 82.8907L158.835 82.9005L158.844 82.9101L159.551 82.2029ZM162.943 104.091L162.122 104.662L162.128 104.671L162.135 104.679L162.943 104.091ZM165.631 106.139L165.272 107.072L165.293 107.08L165.315 107.088L165.631 106.139ZM169.471 106.779H170.471V105.809L169.502 105.779L169.471 106.779ZM169.471 109.467L169.502 110.466L170.471 110.437V109.467H169.471ZM165.631 110.171L165.958 111.116L165.969 111.112L165.979 111.109L165.631 110.171ZM162.943 112.219L163.752 112.807L163.758 112.799L163.764 112.79L162.943 112.219ZM159.551 134.107L158.826 133.419L158.816 133.429L159.551 134.107ZM149.479 136.603V133.851H147.479V136.603H149.479ZM148.479 134.851H150.399V132.851H148.479V134.851ZM150.399 134.851C152.483 134.851 154.192 134.201 155.249 132.698L153.613 131.547C153.049 132.349 152.07 132.851 150.399 132.851V134.851ZM155.249 132.698C156.227 131.309 156.647 129.408 156.647 127.131H154.647C154.647 129.206 154.257 130.633 153.613 131.547L155.249 132.698ZM156.647 127.131V116.059H154.647V127.131H156.647ZM156.647 116.059C156.647 114.773 156.881 113.688 157.317 112.78L155.514 111.914C154.926 113.139 154.647 114.529 154.647 116.059H156.647ZM157.323 112.766C157.76 111.82 158.412 111.038 159.297 110.411L158.141 108.779C156.978 109.603 156.095 110.655 155.507 111.928L157.323 112.766ZM159.282 110.422C160.198 109.799 161.393 109.35 162.907 109.111L162.595 107.135C160.867 107.408 159.374 107.94 158.157 108.768L159.282 110.422ZM163.751 108.123V108.059H161.751V108.123H163.751ZM162.911 107.072C161.433 106.832 160.248 106.401 159.322 105.809L158.244 107.493C159.452 108.266 160.912 108.774 162.591 109.046L162.911 107.072ZM159.361 105.835C158.47 105.203 157.79 104.412 157.31 103.452L155.521 104.346C156.15 105.604 157.049 106.648 158.205 107.467L159.361 105.835ZM157.323 103.48C156.879 102.517 156.647 101.425 156.647 100.187H154.647C154.647 101.68 154.928 103.063 155.507 104.318L157.323 103.48ZM156.647 100.187V89.2429H154.647V100.187H156.647ZM156.647 89.2429C156.647 86.9321 156.23 85.018 155.239 83.6609L153.624 84.841C154.253 85.7025 154.647 87.1165 154.647 89.2429H156.647ZM155.249 83.6755C154.192 82.1731 152.483 81.5229 150.399 81.5229V83.5229C152.07 83.5229 153.049 84.0248 153.613 84.8264L155.249 83.6755ZM150.399 81.5229H148.479V83.5229H150.399V81.5229ZM149.479 82.5229V79.7709H147.479V82.5229H149.479ZM148.479 80.7709H152.703V78.7709H148.479V80.7709ZM152.703 80.7709C155.559 80.7709 157.538 81.5319 158.825 82.8907L160.277 81.5152C158.492 79.6313 155.906 78.7709 152.703 78.7709V80.7709ZM158.844 82.9101C160.184 84.2498 160.919 86.204 160.919 88.9229H162.919C162.919 85.8392 162.076 83.3134 160.258 81.4958L158.844 82.9101ZM160.919 88.9229V100.059H162.919V88.9229H160.919ZM160.919 100.059C160.919 101.886 161.283 103.455 162.122 104.662L163.764 103.52C163.238 102.764 162.919 101.645 162.919 100.059H160.919ZM162.135 104.679C162.934 105.778 163.987 106.578 165.272 107.072L165.99 105.206C165.056 104.846 164.318 104.281 163.752 103.503L162.135 104.679ZM165.315 107.088C166.573 107.507 167.951 107.733 169.441 107.778L169.502 105.779C168.176 105.739 166.994 105.539 165.947 105.19L165.315 107.088ZM168.471 106.779V109.467H170.471V106.779H168.471ZM169.441 108.467C167.94 108.513 166.551 108.764 165.284 109.233L165.979 111.109C167.015 110.725 168.186 110.506 169.502 110.466L169.441 108.467ZM165.304 109.226C163.991 109.681 162.924 110.496 162.122 111.648L163.764 112.79C164.328 111.979 165.053 111.429 165.958 111.116L165.304 109.226ZM162.135 111.631C161.279 112.807 160.919 114.392 160.919 116.251H162.919C162.919 114.612 163.242 113.508 163.752 112.807L162.135 111.631ZM160.919 116.251V127.387H162.919V116.251H160.919ZM160.919 127.387C160.919 130.008 160.19 131.981 158.826 133.419L160.277 134.795C162.07 132.905 162.919 130.398 162.919 127.387H160.919ZM158.816 133.429C157.528 134.825 155.552 135.603 152.703 135.603V137.603C155.913 137.603 158.503 136.717 160.286 134.785L158.816 133.429ZM152.703 135.603H148.479V137.603H152.703V135.603Z" fill="white" fill-opacity="0.25"/>
</g>
<defs>
<filter id="filter0_d_104_3" x="9.49118" y="31.507" width="230.842" height="206.971" filterUnits="userSpaceOnUse" color-interpolation-filters="sRGB">
<feFlood flood-opacity="0" result="BackgroundImageFix"/>
<feColorMatrix in="SourceAlpha" type="matrix" values="0 0 0 0 0 0 0 0 0 0 0 0 0 0 0 0 0 0 127 0" result="hardAlpha"/>
<feOffset dy="4"/>
<feGaussianBlur stdDeviation="4"/>
<feComposite in2="hardAlpha" operator="out"/>
<feColorMatrix type="matrix" values="0 0 0 0 0 0 0 0 0 0 0 0 0 0 0 0 0 0 0.25 0"/>
<feBlend mode="normal" in2="BackgroundImageFix" result="effect1_dropShadow_104_3"/>
<feBlend mode="normal" in="SourceGraphic" in2="effect1_dropShadow_104_3" result="shape"/>
</filter>
<filter id="filter1_f_104_3" x="44.5845" y="46.1786" width="169.377" height="153.054" filterUnits="userSpaceOnUse" color-interpolation-filters="sRGB">
<feFlood flood-opacity="0" result="BackgroundImageFix"/>
<feBlend mode="normal" in="SourceGraphic" in2="BackgroundImageFix" result="shape"/>
<feGaussianBlur stdDeviation="2" result="effect1_foregroundBlur_104_3"/>
</filter>
</defs>
</svg>
